<svg width="256" height="256" viewBox="0 0 256 256" fill="none" xmlns="http://www.w3.org/2000/svg">
<rect x="1" y="1" width="254" height="254" rx="7" fill="white"/>
<path d="M123.713 122.406C124.197 125.673 124.318 128.94 124.318 134.143V172.5H107.62V138.983C107.62 135.232 107.499 131.723 107.136 128.456C106.289 121.801 102.659 118.171 96.246 118.171C88.744 118.171 84.509 124.584 84.509 139.467V172.5H67.932V138.983C67.932 135.232 67.811 131.723 67.448 128.456C66.601 121.801 62.85 118.171 56.437 118.171C48.935 118.171 44.821 124.584 44.821 139.467V172.5H28.123V108.128H44.821V117.929L49.54 110.185C53.17 107.644 57.405 106.434 63.213 106.434C73.74 106.434 80.395 111.637 82.936 118.655L89.228 110.185C92.858 107.644 97.214 106.434 103.022 106.434C115.243 106.434 122.261 113.573 123.713 122.406ZM155.175 83.565V151.446C155.175 153.987 155.175 155.681 155.296 157.375C155.659 160.642 157.111 161.731 162.798 161.368V172.863C159.531 173.226 156.264 173.347 152.513 173.347C144.285 173.347 139.082 170.322 138.719 161.973C138.477 159.069 138.477 156.044 138.477 151.809V83.565H155.175ZM211.799 172.5L210.589 163.062L207.443 169.959C202.966 172.984 197.521 174.194 191.471 174.194C180.339 174.194 170.78 167.66 170.78 155.439C170.78 141.282 182.88 133.296 206.233 133.296H210.347V131.965C210.347 130.029 210.347 128.093 210.105 125.915C209.621 121.438 206.717 118.171 200.183 118.171C193.528 118.171 189.898 122.043 189.414 129.061L173.2 129.182C173.684 114.662 185.421 106.434 200.788 106.434C218.817 106.434 225.593 114.299 226.561 125.431C226.803 128.456 226.924 131.844 226.924 135.353V156.165C226.924 161.005 227.166 165.361 228.134 172.5H211.799ZM197.884 162.457C204.66 162.457 210.347 157.738 210.347 148.784V143.581C197.037 142.613 188.083 145.638 188.083 154.108C188.083 159.795 191.955 162.457 197.884 162.457Z" fill="#262626"/>
<rect x="1" y="1" width="254" height="254" rx="7" stroke="black" stroke-width="2"/>
</svg>


